<?xml version="1.0" encoding="UTF-8" standalone="no"?>
<!-- Created with Inkscape (http://www.inkscape.org/) -->

<svg
        width="1975.4351"
        height="2533.5559"
        viewBox="0 0 522.66718 670.33667"
        version="1.1"
        id="svg1"
        xml:space="preserve"
        xmlns="http://www.w3.org/2000/svg"
><defs
     id="defs1" /><g
     id="layer1"
     transform="translate(-2.6964851,-2.4541829)"><path
       style="fill:#e11d48;stroke:none;stroke-width:0.999998"
       d="m 37.787072,310.41665 h 3.145672 l 8.5656,-116.63287 51.201816,-92.07866 c 29.9812,21.94008 66.74443,29.94636 103.80667,30.69285 l -1.44364,16.0845 -0.37817,2.51579 0.37817,5.95405 c -1.26712,66.64338 -30.63338,164.46958 7.73498,224.05802 -12.0031,4.13591 -18.87311,6.03121 -28.31091,-3.06925 h -3.14561 c 2.94433,18.01205 15.09058,19.06394 31.45652,15.34638 l 9.43697,33.76222 c -20.66705,0.011 -50.31167,-0.1927 -62.91317,18.41573 23.2093,-0.002 54.28716,-9.49313 75.1656,3.34404 23.19313,14.26021 27.06945,45.7744 53.80637,58.04176 v 6.13853 c -61.0718,24.94071 -104.07572,41.99282 -160.41635,-4.88094 -15.06492,-12.53359 -25.62588,-29.09903 -40.905625,-41.15843 3.152263,60.05501 63.910295,108.03279 113.243635,136.7278 37.92454,22.05919 74.67077,19.82683 78.64136,68.91462 22.62271,-5.18712 64.20135,-31.82631 63.13645,-58.31652 -1.24858,-31.06048 -26.14521,-44.32398 -15.95157,-79.80142 18.98685,7.60045 51.28975,26.91617 72.35009,20.60156 20.2392,-6.06833 34.4254,-30.90418 56.62186,-32.07119 21.16308,-1.11252 47.09767,21.91326 66.05876,29.88533 v -3.06937 c -17.03064,-11.21194 -40.50602,-21.58988 -44.03924,-42.96997 -17.86287,7.77577 -39.94283,11.67158 -56.4058,21.73602 -9.4053,5.74975 -13.2423,18.82988 -25.48555,19.38202 -26.49784,1.19488 -60.56448,-18.26316 -81.68274,-31.922 C 216.21223,454.44344 197.4642,308.90141 209.90008,206.06089 219.42966,127.25548 229.2466,37.53021 333.47877,37.250063 312.46233,27.606488 293.65851,13.109156 270.5656,7.8715455 182.39894,-12.124979 33.548234,22.784976 9.1606286,120.12084 c -10.2904909,41.07132 -7.9129647,91.4106 4.4199184,131.97938 6.424047,21.13188 22.138392,35.34812 24.206525,58.31643 M 239.10909,411.7032 h 3.14562 l -3.14562,-36.83149 12.58258,6.13862 c 6.35959,-38.55971 -23.05581,-76.70605 -6.26461,-116.633 22.30763,-53.04391 93.97715,-22.91357 110.08828,18.41572 12.61887,32.3705 -21.23977,78.45615 -0.46368,106.73598 17.52263,23.85112 66.85539,19.14537 77.9448,-8.5637 4.58707,-11.46172 -2.83818,-28.24028 -5.1481,-39.85569 h -3.14561 l 6.29123,33.76207 c -12.27241,2.22312 -34.98163,8.11977 -44.38865,-3.16863 -7.41644,-8.89979 -2.79619,-32.00777 -2.79619,-42.87066 0,-32.56821 0.39582,-80.18496 -28.48082,-102.47536 -37.99137,-29.32608 -113.55822,-32.49741 -132.92817,19.60455 -17.76041,47.77231 -2.81356,120.44014 16.70881,165.74159 M 59.806554,249.03097 l 75.495746,-5.8521 43.38027,9.31589 0.659,-0.39441 c 17.84245,-19.22476 -12.30081,-26.29489 -28.3109,-29.96818 -31.65696,-7.26328 -75.024225,-5.44363 -91.224079,26.89891 m 210.773519,1.88276 c -24.58736,6.59809 -14.48412,24.51257 3.1335,33.59167 17.4269,8.98085 47.09188,11.52634 65.57573,3.97155 16.26023,-6.64589 -0.48035,-22.45304 -8.97094,-28.08299 -16.24596,-10.77274 -40.79752,-14.56296 -59.73829,-9.48023 m 163.55961,34.94871 c 11.2925,3.50009 22.75715,7.05666 34.60212,8.27472 13.97495,1.43709 64.24347,-9.84113 51.11219,-32.13986 -19.27926,-32.73873 -78.92684,-3.41264 -85.71431,23.86514 M 81.826159,279.72394 c 9.933456,3.41051 18.387791,-1.34695 27.776961,1.33091 18.31325,5.22311 38.26386,26.66758 47.71878,-4.40015 l 18.87394,9.20785 3.14573,-15.34647 -3.14573,-3.06925 -3.14562,6.1385 c -29.6659,-16.8115 -65.92859,-18.92951 -91.224061,6.13861 M 3.1847926,285.86255 C 16.025122,314.12681 3.3926039,346.60408 37.787011,362.59473 24.846065,334.35524 36.351459,301.08999 3.1847926,285.86255 m 163.5740774,18.41574 3.14574,3.06924 -3.14574,-3.06924 m 252.70111,5.11543 1.04865,2.04623 -1.04865,-2.04623 m -255.84673,1.02319 3.14562,3.06935 -3.14562,-3.06935 m 257.94379,12.27721 3.16092,18.5018 3.17407,0.0342 -6.33499,-18.53879 m -166.71975,58.31643 3.14561,3.06925 -3.14561,-3.06925 m -18.87395,3.06925 -3.14573,3.06935 3.14573,-3.06935 m 283.10912,9.20788 -34.60226,82.87078 h 3.14558 c 11.96459,-20.00142 38.62103,-59.22856 31.45668,-82.87078 m -299.88601,5.11559 -1.04862,2.04606 1.04862,-2.04606 m 41.94206,1.02313 3.14575,3.06923 -3.14575,-3.06923 m -37.74783,6.13862 -3.14561,3.06922 3.14561,-3.06922 m 6.29132,18.4157 -3.14558,3.06927 3.14558,-3.06927 m 100.66103,15.34637 v 3.06937 c 35.82245,8.3216 92.46994,13.99062 125.82624,-3.06937 -42.25563,-17.46227 -83.24318,-0.34909 -125.82624,0 m -103.80661,12.27723 6.29119,6.13854 -6.29119,-6.13854 m -40.89361,15.3464 v 3.06932 c 18.19816,8.26073 37.28718,6.57168 56.62177,3.0693 v -12.27718 l -56.62177,6.13854 m 69.20448,39.90079 3.14561,3.06927 -3.14561,-3.06927 m 138.40879,73.66295 3.14574,18.41572 h 3.14564 c 42.25396,-56.89273 67.98433,-17.67527 119.535,-6.13863 -13.03381,-16.9564 -76.58707,-50.9252 -100.66106,-36.83149 -10.97697,6.42635 -17.80562,26.34968 -25.16532,24.5544 m 128.972,-27.62362 3.14561,3.06922 -3.14561,-3.06922 m -124.77777,17.39269 1.04862,2.0461 -1.04862,-2.0461 m 11.53409,1.02317 -3.1456,3.06924 3.1456,-3.06924 m 28.31096,15.34639 -44.03928,49.10866 3.14574,12.27713 h 6.29123 c 27.64956,-56.66001 59.16073,-34.11765 103.80671,-15.34637 l -69.2044,-46.03881 m -6.29138,46.03943 -11.34661,6.97558 -23.80936,16.00366 1.51294,9.40562 14.76911,7.51583 c 16.05529,4.05948 -55.04651,-55.58198 98.10617,-10.08092 l -79.23225,-29.81977"
       id="path1" /></g>
</svg>
